<?xml version="1.0" encoding="UTF-8"?>
<svg width="512" height="512" viewBox="0 0 512 512" fill="none" xmlns="http://www.w3.org/2000/svg">
  <rect width="512" height="512" rx="128" fill="#4F46E5"/>
  <path d="M256 128C185.307 128 128 185.307 128 256C128 326.693 185.307 384 256 384C326.693 384 384 326.693 384 256C384 185.307 326.693 128 256 128ZM230.4 332.8V179.2L332.8 256L230.4 332.8Z" fill="white"/>
  <path d="M256 64C150.4 64 64 150.4 64 256C64 361.6 150.4 448 256 448C361.6 448 448 361.6 448 256C448 150.4 361.6 64 256 64ZM256 384C185.307 384 128 326.693 128 256C128 185.307 185.307 128 256 128C326.693 128 384 185.307 384 256C384 326.693 326.693 384 256 384Z" fill="white" fill-opacity="0.2"/>
</svg>